<svg id="Layer_1" data-name="Layer 1" xmlns="http://www.w3.org/2000/svg" viewBox="0 0 559.92 35.35"><defs><style>.cls-1{fill:#dd4136;}.cls-2{fill:#f06924;}.cls-3{fill:#ffcd15;}.cls-4{fill:#b2c035;}.cls-5{fill:#39a3d8;}.cls-6{fill:#8d6bae;}.cls-7{fill:#414042;}</style></defs><title>Untitled-2</title><path class="cls-1" d="M41.64,68.16A7.37,7.37,0,0,0,40,66.29a7.74,7.74,0,0,0-4.87-1.7,8.65,8.65,0,0,0-4.26,1A8.07,8.07,0,0,0,28,68.16a11.52,11.52,0,0,0-1.58,3.72,18.53,18.53,0,0,0-.5,4.3,17.25,17.25,0,0,0,.5,4.14A11.26,11.26,0,0,0,28,83.94a8,8,0,0,0,2.84,2.58,8.65,8.65,0,0,0,4.26,1,6.85,6.85,0,0,0,5.32-2.08,9.67,9.67,0,0,0,2.35-5.49H50a17.25,17.25,0,0,1-1.47,5.73A13.82,13.82,0,0,1,45.38,90a13.51,13.51,0,0,1-4.54,2.75,17,17,0,0,1-5.73.94,17.31,17.31,0,0,1-7-1.35,14.9,14.9,0,0,1-5.23-3.71,16.33,16.33,0,0,1-3.26-5.56,20.37,20.37,0,0,1-1.14-6.89,21,21,0,0,1,1.14-7A16.79,16.79,0,0,1,22.9,63.5a14.82,14.82,0,0,1,5.23-3.78,17,17,0,0,1,7-1.38,17,17,0,0,1,5.28.81,14.51,14.51,0,0,1,4.44,2.34,12.91,12.91,0,0,1,3.25,3.81,13.61,13.61,0,0,1,1.6,5.2H42.49A6,6,0,0,0,41.64,68.16Z" transform="translate(-18.5 -58.34)"/><path class="cls-2" d="M54.7,69.16A17.13,17.13,0,0,1,58,63.5a15,15,0,0,1,5.23-3.78,18.42,18.42,0,0,1,14,0,14.88,14.88,0,0,1,5.2,3.78,17,17,0,0,1,3.27,5.66,21,21,0,0,1,1.13,7,20.37,20.37,0,0,1-1.13,6.89,16.51,16.51,0,0,1-3.27,5.56,15,15,0,0,1-5.2,3.71,18.8,18.8,0,0,1-14,0A15.08,15.08,0,0,1,58,88.63a16.66,16.66,0,0,1-3.26-5.56,20.37,20.37,0,0,1-1.13-6.89A21,21,0,0,1,54.7,69.16Zm6.79,11.16a11.06,11.06,0,0,0,1.59,3.62,8,8,0,0,0,2.83,2.58,9.84,9.84,0,0,0,8.52,0,7.93,7.93,0,0,0,2.84-2.58,11.06,11.06,0,0,0,1.59-3.62,17.25,17.25,0,0,0,.49-4.14,18.53,18.53,0,0,0-.49-4.3,11.32,11.32,0,0,0-1.59-3.72,8,8,0,0,0-2.84-2.6,9.84,9.84,0,0,0-8.52,0,8,8,0,0,0-2.83,2.6,11.32,11.32,0,0,0-1.59,3.72,18.53,18.53,0,0,0-.5,4.3A17.25,17.25,0,0,0,61.49,80.32Z" transform="translate(-18.5 -58.34)"/><path class="cls-3" d="M99.27,59.15V86.69h16.47v6.24H91.85V59.15Z" transform="translate(-18.5 -58.34)"/><path class="cls-4" d="M119.57,69.16a17,17,0,0,1,3.27-5.66,14.82,14.82,0,0,1,5.23-3.78,18.39,18.39,0,0,1,14,0,15,15,0,0,1,5.21,3.78,17.13,17.13,0,0,1,3.26,5.66,21,21,0,0,1,1.14,7,20.37,20.37,0,0,1-1.14,6.89,16.66,16.66,0,0,1-3.26,5.56,15.1,15.1,0,0,1-5.21,3.71,18.77,18.77,0,0,1-14,0,14.9,14.9,0,0,1-5.23-3.71,16.51,16.51,0,0,1-3.27-5.56,20.62,20.62,0,0,1-1.13-6.89A21.26,21.26,0,0,1,119.57,69.16Zm6.79,11.16A11.06,11.06,0,0,0,128,83.94a7.93,7.93,0,0,0,2.84,2.58,9.84,9.84,0,0,0,8.52,0,8,8,0,0,0,2.83-2.58,11.06,11.06,0,0,0,1.59-3.62,17.25,17.25,0,0,0,.5-4.14,18.53,18.53,0,0,0-.5-4.3,11.32,11.32,0,0,0-1.59-3.72,8,8,0,0,0-2.83-2.6,9.84,9.84,0,0,0-8.52,0,8,8,0,0,0-2.84,2.6,11.32,11.32,0,0,0-1.59,3.72,18.53,18.53,0,0,0-.49,4.3A17.25,17.25,0,0,0,126.36,80.32Z" transform="translate(-18.5 -58.34)"/><path class="cls-5" d="M181.56,90.36q-3.83,3.33-10.6,3.33t-10.62-3.31q-3.76-3.31-3.76-10.22v-21H164v21a15,15,0,0,0,.24,2.69,5.45,5.45,0,0,0,1,2.35,5.34,5.34,0,0,0,2.1,1.65,8.51,8.51,0,0,0,3.62.64q4,0,5.49-1.77c1-1.18,1.51-3,1.51-5.56v-21h7.43v21Q185.39,87,181.56,90.36Z" transform="translate(-18.5 -58.34)"/><path class="cls-6" d="M210,59.15a10.84,10.84,0,0,1,4.09.73,9.46,9.46,0,0,1,3.13,2,8.8,8.8,0,0,1,2,3,9.45,9.45,0,0,1,.69,3.62,10.22,10.22,0,0,1-1.25,5.16,7.9,7.9,0,0,1-4.1,3.31V77a5.8,5.8,0,0,1,2.27,1.16A6.46,6.46,0,0,1,218.28,80a8.44,8.44,0,0,1,.83,2.34,20.19,20.19,0,0,1,.35,2.56c0,.53.07,1.16.1,1.89s.09,1.47.16,2.22a15.65,15.65,0,0,0,.38,2.16,5.24,5.24,0,0,0,.78,1.72h-7.42a12.62,12.62,0,0,1-.76-3.83c-.1-1.48-.24-2.9-.43-4.26A6.71,6.71,0,0,0,210.66,81a5.53,5.53,0,0,0-4-1.23h-7.43v13.2h-7.43V59.15Zm-2.65,15.28a5.65,5.65,0,0,0,3.83-1.13,4.73,4.73,0,0,0,1.28-3.69A4.54,4.54,0,0,0,211.18,66a5.7,5.7,0,0,0-3.83-1.11h-8.14v9.51Z" transform="translate(-18.5 -58.34)"/><path class="cls-7" d="M253.49,92.93H249V79.12l-13.06-20h5.35l10.13,16.09,9.88-16.09h5.11l-12.91,20Z" transform="translate(-18.5 -58.34)"/><path class="cls-7" d="M269.31,69.39a16.71,16.71,0,0,1,3.06-5.65,14.85,14.85,0,0,1,5.06-3.93,17.64,17.64,0,0,1,14.1,0,14.85,14.85,0,0,1,5.06,3.93,16.52,16.52,0,0,1,3.05,5.65,22.19,22.19,0,0,1,0,13.3,16.52,16.52,0,0,1-3.05,5.65,14.56,14.56,0,0,1-5.06,3.91,18,18,0,0,1-14.1,0,14.56,14.56,0,0,1-5.06-3.91,16.71,16.71,0,0,1-3.06-5.65,22.4,22.4,0,0,1,0-13.3Zm4.15,11.69a13.49,13.49,0,0,0,2.08,4.47,10.62,10.62,0,0,0,3.64,3.2,12.3,12.3,0,0,0,10.6,0,10.62,10.62,0,0,0,3.64-3.2,13.49,13.49,0,0,0,2.08-4.47,19.29,19.29,0,0,0,0-10.08,13.67,13.67,0,0,0-2.08-4.47,10.49,10.49,0,0,0-3.64-3.19,12.21,12.21,0,0,0-10.6,0,10.49,10.49,0,0,0-3.64,3.19A13.67,13.67,0,0,0,273.46,71a19.29,19.29,0,0,0,0,10.08Z" transform="translate(-18.5 -58.34)"/><path class="cls-7" d="M329.67,90.45q-3.46,3.24-9.85,3.24t-10.19-3.1Q306,87.5,306,80.72V59.15h4.5V80.72q0,4.55,2.41,6.89T319.82,90c2.88,0,5.06-.78,6.56-2.34s2.25-3.86,2.25-6.89V59.15h4.49V80.72Q333.12,87.22,329.67,90.45Z" transform="translate(-18.5 -58.34)"/><path class="cls-7" d="M356.21,59.15q4.83,0,7.55,2.37A8.13,8.13,0,0,1,366.48,68a10.23,10.23,0,0,1-1.39,5.39,7.17,7.17,0,0,1-4.48,3.17v.1a6,6,0,0,1,2.39.94,5,5,0,0,1,1.47,1.59,7.38,7.38,0,0,1,.81,2.06,23.67,23.67,0,0,1,.4,2.36c.06.82.11,1.66.14,2.51a20.71,20.71,0,0,0,.24,2.51A14.27,14.27,0,0,0,366.6,91a5.65,5.65,0,0,0,1.07,2h-5a2.75,2.75,0,0,1-.64-1.42,14.29,14.29,0,0,1-.21-2c0-.74-.07-1.53-.1-2.39a15.94,15.94,0,0,0-.28-2.5c-.13-.82-.29-1.61-.47-2.35a5.59,5.59,0,0,0-.9-1.94A4.46,4.46,0,0,0,358.44,79a6,6,0,0,0-2.65-.5h-11V92.93h-4.49V59.15Zm1,15.33a6.56,6.56,0,0,0,2.48-.92,5.16,5.16,0,0,0,1.71-1.85,6.24,6.24,0,0,0,.64-3,6.11,6.11,0,0,0-1.42-4.17q-1.43-1.61-4.59-1.61H344.81V74.72h9.37A17.9,17.9,0,0,0,357.16,74.48Z" transform="translate(-18.5 -58.34)"/><path class="cls-7" d="M406.3,63.93a10.43,10.43,0,0,0-6.13-1.8A11,11,0,0,0,395,63.27a10.17,10.17,0,0,0-3.55,3,13.13,13.13,0,0,0-2.05,4.37,19.26,19.26,0,0,0-.67,5.11,21.52,21.52,0,0,0,.67,5.47,13.08,13.08,0,0,0,2.05,4.5,10.21,10.21,0,0,0,3.58,3,11.18,11.18,0,0,0,5.2,1.13,10,10,0,0,0,3.95-.73,8.89,8.89,0,0,0,3-2,9.34,9.34,0,0,0,2-3.1A13.08,13.08,0,0,0,410,80.2h4.49q-.66,6.39-4.4,9.94t-10.22,3.55A16.27,16.27,0,0,1,393,92.34a13.37,13.37,0,0,1-4.87-3.71A15.75,15.75,0,0,1,385.2,83a23.63,23.63,0,0,1-1-6.9,22.46,22.46,0,0,1,1-6.94,16.64,16.64,0,0,1,3.05-5.65,14.16,14.16,0,0,1,5-3.81,16.13,16.13,0,0,1,6.88-1.4,17.5,17.5,0,0,1,5,.71,13.49,13.49,0,0,1,4.21,2.09,11.53,11.53,0,0,1,3.07,3.43,12.48,12.48,0,0,1,1.61,4.75h-4.49A8.39,8.39,0,0,0,406.3,63.93Z" transform="translate(-18.5 -58.34)"/><path class="cls-7" d="M424.54,59.15V73.68h17.79V59.15h4.5V92.93h-4.5V77.46H424.54V92.93h-4.49V59.15Z" transform="translate(-18.5 -58.34)"/><path class="cls-7" d="M468.36,59.15l13.2,33.78h-5L472.9,82.76H458.61l-3.79,10.17h-4.58l13.15-33.78ZM471.48,79l-5.63-15.75h-.1L460,79Z" transform="translate(-18.5 -58.34)"/><path class="cls-7" d="M489.61,59.15l17.79,27.4h.09V59.15h4.26V92.93h-4.92L489.18,65.82h-.1V92.93h-4.25V59.15Z" transform="translate(-18.5 -58.34)"/><path class="cls-7" d="M539.38,92.53a16,16,0,0,1-5.91,1.16,15.79,15.79,0,0,1-6.77-1.4,15.22,15.22,0,0,1-5.06-3.76,16.26,16.26,0,0,1-3.17-5.44,18.9,18.9,0,0,1-1.09-6.39,23.84,23.84,0,0,1,1-7,17,17,0,0,1,3-5.85,14.82,14.82,0,0,1,5-4,15.69,15.69,0,0,1,7-1.49,20.59,20.59,0,0,1,5.18.64A13.34,13.34,0,0,1,543,61a12.07,12.07,0,0,1,3.22,3.48A13.56,13.56,0,0,1,548,69.56H543.5a8.85,8.85,0,0,0-1.23-3.34,8,8,0,0,0-2.22-2.29,9.93,9.93,0,0,0-3-1.35,13.75,13.75,0,0,0-3.57-.45,10.26,10.26,0,0,0-8.87,4.47,13.9,13.9,0,0,0-2.06,4.59,21.23,21.23,0,0,0-.67,5.28,17.17,17.17,0,0,0,.76,5.08,13.36,13.36,0,0,0,2.23,4.31A10.53,10.53,0,0,0,533.47,90a12,12,0,0,0,4.68-.85,9.66,9.66,0,0,0,5.54-5.84,11.43,11.43,0,0,0,.61-4.33H533.51V75.14h14.82V92.93h-2.84l-1.19-4.21A11.14,11.14,0,0,1,539.38,92.53Z" transform="translate(-18.5 -58.34)"/><path class="cls-7" d="M578.28,59.15v3.78H559.45V73.68H577v3.78H559.45V89.15h19v3.78H555V59.15Z" transform="translate(-18.5 -58.34)"/></svg>